<?xml version="1.0" encoding="UTF-8"?>
<svg xmlns="http://www.w3.org/2000/svg" id="_レイヤー_1" version="1.1" viewBox="0 0 683.8348624 170.5281372">
  <defs>
    <style>
      .st0 {
        fill: #f2971b;
      }

      .st1 {
        fill: #e84730;
      }
    </style>
  </defs>
  <g>
    <path class="st1" d="M235.851534,137.3906965c-2.9513931,0-5.4340405-.8570757-7.4544574-2.5619196-2.0191139-1.7075032-3.026703-3.8811726-3.026703-6.5236674v-52.8796799c0-2.4813444.9686577-4.6199117,2.9111321-6.4040012,1.9399215-1.7854192,4.4628299-2.6799902,7.5700283-2.6799902,3.5720882,0,6.292366,1.2426666,8.1530419,3.7264043.7764738.9299391,1.24264,1.8620055,1.4010514,2.7943379,1.8619789-2.3281717,4.3447593-4.1939001,7.4518247-5.5897395,3.1060018-1.3971689,6.5999878-2.097083,10.4838196-2.097083,10.560406,0,18.1693125,3.4929224,22.8296448,10.4838196,2.7954016-3.4136768,6.2090783-6.0170806,10.2500717-7.8078183,4.035409-1.7801007,8.2282454-2.6760013,12.5793071-2.6760013,8.6970708,0,15.5672383,2.56059,20.6144911,7.6868225,5.0443277,5.1251688,7.5711452,13.2808168,7.5711452,24.4605616v31.4485337c0,2.4866629-.9711574,4.5433253-2.9110789,6.1729126-1.9425807,1.6309168-4.3901527,2.4465082-7.3389928,2.4465082-2.9512335,0-5.3974758-.8570757-7.3360677-2.5619196-1.94524-1.7075032-2.9126744-3.8811726-2.9126744-6.5236674v-28.4217775c0-5.7418485-1.0126417-9.8594282-3.0291495-12.3471548-2.0204967-2.4786851-4.8927505-3.724011-8.6178252-3.724011-3.7266703,0-6.719654,1.1269893-8.9672504,3.3785747-2.2566379,2.2515853-3.7694842,4.9302459-4.544655,8.0349181v33.5456167c0,2.4866629-.9711574,4.5433253-2.9124085,6.1729126-1.9439103,1.6309168-4.3901527,2.4465082-7.3376632,2.4465082-2.9525631,0-5.3990714-.8570757-7.3376632-2.5619196-1.9436444-1.7075032-2.9124085-3.8811726-2.9124085-6.5236674v-28.4217775c0-5.7418485-1.011312-9.8594282-3.0267562-12.3471548-2.0215604-2.4786851-4.8924846-3.724011-8.6191549-3.724011-3.5758909,0-6.5247311,1.1269893-8.8529028,3.3785747-2.330565,2.2515853-3.8849221,4.8563188-4.6588165,7.8011702v33.0807802c0,2.6411652-.9725402,4.8549892-2.9124351,6.6390788-1.943804,1.7840895-4.309604,2.6789265-7.1064948,2.6789265Z"></path>
    <path class="st1" d="M365.3691745,54.6928679c-3.2578448,0-6.0548419-1.0477437-8.385407-3.1448268-2.3281717-2.097083-3.4915927-4.774414-3.4915927-8.0349181,0-2.9501698,1.163421-5.5158124,3.4915927-7.6894817,2.330565-2.174999,5.1275621-3.2618337,8.385407-3.2618337,3.1070655,0,5.7873216,1.0868347,8.0413003,3.2618337,2.2489261,2.1736694,3.3748517,4.7393119,3.3748517,7.6894817,0,3.2605041-1.1259256,5.937835-3.3748517,8.0349181-2.2539787,2.097083-4.9342348,3.1448268-8.0413003,3.1448268ZM365.3691745,137.3906965c-2.9488402,0-5.4365668-.8570757-7.4520109-2.5619196-2.0202308-1.7075032-3.0264902-3.8811726-3.0264902-6.5236674v-52.8796799c0-2.4813444.9684982-4.6199117,2.9110789-6.4040012,1.9372622-1.7854192,4.4627501-2.6799902,7.5674223-2.6799902,3.1070655,0,5.5535737.8945711,7.3400565,2.6799902,1.7827599,1.7840895,2.6802561,3.9965839,2.6802561,6.6377491v52.4135137c0,2.6411652-.9740826,4.8549892-2.9113448,6.6390788-1.944974,1.7840895-4.3095774,2.6789265-7.1089679,2.6789265Z"></path>
    <path class="st1" d="M399.6678903,137.3906965c-2.6462178,0-5.0496462-1.0129076-7.2233156-3.0294154-2.1760627-2.0178374-3.2602381-4.3460091-3.2602381-6.9895676,0-2.4813444,1.0086528-4.8095161,3.0264902-6.9871743l16.0724954-16.5397253c.9347257-1.241337,1.3995623-2.3295013,1.3995623-3.2618337,0-1.241337-.4648366-2.330565-1.3995623-3.2602381l-16.3049137-16.3086366c-1.5530009-2.0154441-2.3281717-4.0343453-2.3281717-6.0548419,0-2.6411652,1.1623573-4.9302459,3.4929224-6.8728267,2.3281717-1.9385918,4.8951439-2.9110789,7.6881521-2.9110789,2.9475106,0,5.2756823,1.0868347,6.988504,3.2618337l13.0428141,15.1425563c.933662.9323324,1.8659944,1.3931801,2.7969971,1.3931801,1.2426666,0,2.1723398-.4608477,2.7943379-1.3931801l12.813055-15.1425563c1.7088328-2.174999,4.0343453-3.2618337,6.988504-3.2618337,2.7980608,0,5.3586508.972487,7.6881521,2.9110789,2.3318946,1.9425807,3.494252,4.3122367,3.494252,7.1065746,0,1.8633351-.7778301,3.8056499-2.3308309,5.821094l-16.3049137,16.3086366c-.9347257.9296731-1.3958393,2.0189011-1.3958393,3.2602381,0,.9323324.4611136,2.0204967,1.3958393,3.2618337l16.073825,16.5397253c2.0151782,2.1776583,3.0304791,4.5058299,3.0304791,6.9871743,0,2.6435585-1.089228,4.9717302-3.2628974,6.9895676-2.1776583,2.0165078-4.5848096,3.0294154-7.2209222,3.0294154-2.7967312,0-5.1249029-1.1647507-6.9895676-3.4955816l-13.9791353-16.5383956c-.6219981-.9323324-1.5516713-1.3971689-2.7943379-1.3971689-.9310028,0-1.8633351.4648366-2.7969971,1.3971689l-14.2088943,16.5383956c-1.0894939,1.241337-2.2101011,2.1345784-3.3772451,2.6799902-1.1647507.5440822-2.369656.8155914-3.6085996.8155914Z"></path>
    <path class="st0" d="M485.1339962,168.8392302c-1.8633351,0-3.494252-.1582253-4.8938142-.4674958-1.3998282-.3090046-2.7177515-.6230618-3.9604182-.9310028-2.3295013-.7788938-4.0383341-2.0189011-5.1249029-3.7264043-1.0855051-1.7114921-1.6309168-3.4955816-1.6309168-5.3589167,0-2.7954016,1.011312-5.2833941,3.0278199-7.4530746,2.0218263-2.1773923,4.7395779-2.8773064,8.1545842-2.0984127,1.241337.3116639,2.3268421.4674958,3.2602381.4674958,3.8798362,0,5.8250761-2.7967312,5.8250761-8.385407v-66.6266628c0-2.482674.9658389-4.6172524,2.9097492-6.4079901,1.9425807-1.7801007,4.46275-2.6760013,7.5700884-2.6760013,3.1070583,0,5.5535665.8959007,7.337656,2.6760013,1.7864828,1.7907377,2.6799901,4.0032321,2.6799901,6.641738v66.8564219c0,8.074009-2.2917399,14.6779857-6.8714969,19.801559-4.5797569,5.1262325-10.6774126,7.6881521-18.283653,7.6881521ZM500.0404042,54.6928679c-3.2618336,0-6.0535122-1.0477437-8.3843431-3.1448268-2.3318946-2.097083-3.4966452-4.774414-3.4966452-8.0349181,0-2.9501698,1.1647506-5.5158124,3.4966452-7.6894817,2.3308309-2.174999,5.1225094-3.2618337,8.3843431-3.2618337,3.1044061,0,5.7846622,1.0868347,8.0359888,3.2618337,2.2502484,2.1736694,3.3785673,4.7393119,3.3785673,7.6894817,0,3.2605041-1.1283189,5.937835-3.3785673,8.0349181-2.2513266,2.097083-4.9315827,3.1448268-8.0359888,3.1448268Z"></path>
    <path class="st0" d="M561.0693483,137.3906965c-6.6768315,0-12.811991-1.5543305-18.4019962-4.6590026-5.5923986-3.1060018-10.0564782-7.4142496-13.3948982-12.9300619-3.3408133-5.5094302-5.0068322-11.762652-5.0068322-18.7498264,0-7.1427403,1.6660189-13.3975577,5.0068322-18.7522197,3.33842-5.361576,7.8024996-9.5541465,13.3948982-12.5822323,5.5900052-3.0280858,11.7251648-4.5419957,18.4019962-4.5419957,6.8324059,0,13.0053183,1.5139099,18.5211305,4.5419957,5.5107597,3.0280858,9.8995826,7.2206563,13.1611503,12.5822323,3.260504,5.3546619,4.8927504,11.6094793,4.8927504,18.7522197,0,6.9871743-1.6322464,13.2403962-4.8927504,18.7498264-3.2615677,5.5158124-7.6503906,9.8240602-13.1611503,12.9300619-5.5158122,3.1046721-11.6887246,4.6590026-18.5211305,4.6590026ZM561.0693483,118.521204c4.8119093,0,8.7358956-1.6697419,11.7666406-5.0081619,3.0278198-3.3368245,4.540666-7.4918996,4.540666-12.4612365,0-5.1262325-1.5128462-9.2384937-4.540666-12.3482185-3.030745-3.1060018-6.9547313-4.657673-11.7666406-4.657673-4.6576729,0-8.5816593,1.5516713-11.765311,4.657673-3.1839176,3.1097247-4.7746716,7.2219859-4.7746716,12.3482185,0,4.9693369,1.590754,9.124412,4.7746716,12.4612365,3.1836517,3.33842,7.1076381,5.0081619,11.765311,5.0081619Z"></path>
    <path class="st0" d="M649.3593075,137.3906965c-6.9895675,0-12.8936299-2.1776583-17.7058051-6.5223378-1.3995622,4.3446795-4.5821502,6.5223378-9.551487,6.5223378-2.9512334,0-5.4378863-.8570757-7.454404-2.5619196-2.0202208-1.7075032-3.0280758-3.8811726-3.0280758-6.5236674V41.6484583c0-2.482674.9687542-4.6199117,2.9126645-6.4090538,1.9385918-1.779037,4.4614304-2.6775969,7.5698154-2.6775969,2.9475105,0,5.357587.8985599,7.220922,2.6775969,1.8657284,1.7891421,2.7954015,4.0019024,2.7954015,6.6428017v30.5164672c5.2783414-4.8145686,11.2589902-7.2233156,17.9358301-7.2233156,10.2537944,0,18.441885,3.2227427,24.5796953,9.6682282,6.135417,6.4430922,9.2009981,15.1803177,9.2009981,26.2082194,0,11.0252425-3.108395,19.8393203-9.3190687,26.4393081-6.2104078,6.6013174-14.5974101,9.8995828-25.1564862,9.8995828ZM647.7286566,118.521204c4.8105797,0,8.6553204-1.6697419,11.5315631-5.0081619,2.8682649-3.3368245,4.3082477-7.4918996,4.3082477-12.4612365,0-5.1262325-1.4399828-9.2384937-4.3082477-12.3482185-2.8762426-3.1060018-6.7209834-4.657673-11.5315631-4.657673-4.6590025,0-8.4284866,1.5516713-11.2994107,4.657673-2.8746471,3.1097247-4.310907,7.2219859-4.310907,12.3482185,0,4.9693369,1.4362599,9.124412,4.310907,12.4612365,2.8709242,3.33842,6.6404082,5.0081619,11.2994107,5.0081619Z"></path>
  </g>
  <g>
    <path class="st0" d="M133.3420679,15.3468993c1.6851655,2.2542446,2.9629342,4.3707401,3.8561756,6.3391156.8831363,1.9774169,1.6934092,3.8487297,2.4451786,5.6352126,1.1567729,3.5227059,1.1958639,6.7106125.113018,9.5671768-1.0921532,2.8592235-2.7568425,5.1275621-5.0134804,6.8129936-3.3812339,2.521499-7.3052204,3.5421184-11.752281,3.0618582-4.4563679-.4791965-7.7596859-3.1411038-9.9009124-7.9740213-.7464509-1.7827599-1.5373113-3.2408256-2.3786974-4.367815-3.4993045-4.6991573-8.6385674-4.5225832-15.4074174.5230741l-36.3141599,27.0807187c-3.006014,2.2425439-6.4651639,2.995643-10.379843,2.2582335-3.9085628-.7363458-7.2754368-2.9839423-10.0801458-6.744385-2.8033793-3.7577835-3.9250502-7.5246084-3.380968-11.3004747.5531236-3.7694842,2.4228409-6.8520845,5.6184593-9.2321116l36.593115-27.2974474C87.132314,2.4245492,97.1967702-.7630915,107.5284809.1535513c10.3423476.9193021,18.9471426,5.9899563,25.813587,15.193348Z"></path>
    <path class="st0" d="M28.7275144,73.0233309c3.4812217,3.483615,5.3482797,7.5881644,5.5963876,12.3157756.2494375,4.7225587-1.3684491,8.8257784-4.8510003,12.3070001-3.147486,3.1472201-7.1273167,4.6419834-11.9368328,4.4781738-4.8068568-.1685963-8.9542201-1.9917768-12.4354418-5.4729985C1.7818855,93.3375928.0847534,89.3149483.0031144,84.5899963c-.0819048-4.7265475,1.4516835-8.6672873,4.5989036-11.8147733,3.4825513-3.4812217,7.5442868-5.1379332,12.1875999-4.9730598,4.6419834.1688623,8.6204845,1.9074786,11.9378965,5.2211677Z"></path>
    <path class="st1" d="M42.4534893,154.5795442c-1.6841018-2.2539787-2.9629342-4.3704742-3.8537823-6.3377859-.8828704-1.9774169-1.6958025-3.8497934-2.4462423-5.6352126-1.1570388-3.5227059-1.1971935-6.7116762-.113018-9.5685064,1.0894939-2.8592235,2.7565766-5.1288918,5.0121508-6.8090047,3.3822976-2.5241583,7.3049545-3.5447777,11.7549402-3.0645175,4.4550383.4791965,7.7583563,3.1397742,9.8993169,7.9726917.7467169,1.7854192,1.5362476,3.2421553,2.3776337,4.3704742,3.5019638,4.696764,8.639897,4.5212536,15.4100767-.5244037l36.3141599-27.0793891c3.0033548-2.2438735,6.4635684-2.9983022,10.379843-2.2592972,3.9069673.7360799,7.2727776,2.981283,10.0761569,6.7427894,2.8033793,3.7591131,3.9277094,7.5272676,3.3822976,11.3018043-.551794,3.7694842-2.4215113,6.8494253-5.6171297,9.2334412l-36.5917854,27.2961178c-9.7735345,7.2844783-19.836661,10.4721189-30.1686376,9.5554761-10.3434113-.9193021-18.9495359-5.9899563-25.8159803-15.1946776Z"></path>
    <path class="st1" d="M147.0693724,96.9044423c-3.4812217-3.4849446-5.3485457-7.5881644-5.5963876-12.314446-.2494375-4.7225587,1.3697787-8.8271081,4.8510003-12.3080638,3.147486-3.147486,7.1273167-4.6419834,11.9368328-4.4784397,4.8081865.1675326,8.9552838,1.9891176,12.4351759,5.4729985,3.3190075,3.3123594,5.0161397,7.3363336,5.0977786,12.059956.0819048,4.7292068-1.4490243,8.6699465-4.5991696,11.8147733-3.483615,3.4825513-7.5466801,5.1392628-12.1886636,4.9730598-4.6393242-.166203-8.6191549-1.906149-11.9365668-5.2198381Z"></path>
  </g>
</svg>
